<?xml version="1.0" encoding="utf-8"?>
<!-- Uploaded to: SVG Repo, www.svgrepo.com, Generator: SVG Repo Mixer Tools -->
<svg width="800px" height="800px" viewBox="0 0 1024 1024" class="icon"  version="1.1" xmlns="http://www.w3.org/2000/svg"><path d="M864 992H160c-70.4 0-128-57.6-128-128V160c0-70.4 57.6-128 128-128h704c70.4 0 128 57.6 128 128v704c0 70.4-57.6 128-128 128z" fill="#938993" /><path d="M804 476h-584c-32.8 0-60-26.4-60-60V152c0-32.8 26.4-60 60-60h584.8c32.8 0 60 26.4 60 60v264.8c-0.8 32.8-27.2 59.2-60.8 59.2z" fill="#121519" /><path d="M771.2 440.8H386.4c-26.4 0-48-21.6-48-48V176c0-26.4 21.6-48 48-48h384.8c26.4 0 48 21.6 48 48v216.8c-0.8 26.4-21.6 48-48 48z" fill="#D2D5D6" /><path d="M771.2 448.8H386.4c-30.4 0-56-24.8-56-56V176c0-30.4 24.8-56 56-56h384.8c30.4 0 56 24.8 56 56v216.8c-0.8 31.2-25.6 56-56 56zM386.4 136c-21.6 0-40 17.6-40 40v216.8c0 21.6 17.6 40 40 40h384.8c21.6 0 40-17.6 40-40V176c0-21.6-17.6-40-40-40H386.4z" fill="#6A576D" /><path d="M730.4 376h-65.6c-20 0-36-16-36-36V228.8c0-20 16-36 36-36h65.6c20 0 36 16 36 36v111.2c0 20-16.8 36-36 36z" fill="#121519" /><path d="M730.4 384h-65.6c-24 0-44-20-44-44V228.8c0-24 20-44 44-44h65.6c24 0 44 20 44 44v111.2c0 24-20 44-44 44z m-65.6-183.2c-15.2 0-28 12.8-28 28v111.2c0 15.2 12.8 28 28 28h65.6c15.2 0 28-12.8 28-28V228.8c0-15.2-12.8-28-28-28h-65.6z" fill="#6A576D" /><path d="M824.8 906.4H199.2c-35.2 0-64-28.8-64-64V627.2c0-35.2 28.8-64 64-64h626.4c35.2 0 64 28.8 64 64v215.2c-0.8 35.2-28.8 64-64.8 64z" fill="#FFFFFF" /><path d="M824.8 914.4H199.2c-40 0-72-32-72-72V627.2c0-40 32-72 72-72h626.4c40 0 72 32 72 72v215.2c-0.8 39.2-32.8 72-72.8 72zM199.2 571.2c-31.2 0-56 24.8-56 56v215.2c0 31.2 24.8 56 56 56h626.4c31.2 0 56-24.8 56-56V627.2c0-31.2-24.8-56-56-56H199.2z" fill="#6A576D" /><path d="M813.6 661.6H210.4c-4.8 0-8-3.2-8-8s3.2-8 8-8h603.2c4.8 0 8 3.2 8 8s-3.2 8-8 8zM812.8 744H209.6c-4.8 0-8-3.2-8-8s3.2-8 8-8h603.2c4.8 0 8 3.2 8 8s-3.2 8-8 8zM812.8 826.4H209.6c-4.8 0-8-3.2-8-8s3.2-8 8-8h603.2c4.8 0 8 3.2 8 8s-3.2 8-8 8z" fill="#6A576D" /><path d="M864 1000H160c-75.2 0-136-60.8-136-136V160c0-75.2 60.8-136 136-136h704c75.2 0 136 60.8 136 136v704c0 75.2-60.8 136-136 136zM160 40C93.6 40 40 93.6 40 160v704c0 66.4 53.6 120 120 120h704c66.4 0 120-53.6 120-120V160c0-66.4-53.6-120-120-120H160z" fill="#6A576D" /><path d="M804 484h-584c-37.6 0-68-30.4-68-68V152c0-37.6 30.4-68 68-68h584.8c37.6 0 68 30.4 68 68v264.8c-0.8 36.8-31.2 67.2-68.8 67.2z m-584-384c-28.8 0-52 23.2-52 52v264.8c0 28.8 23.2 52 52 52h584.8c28.8 0 52-23.2 52-52V152c0-28.8-23.2-52-52-52H220z" fill="#6A576D" /></svg>